<svg xmlns="http://www.w3.org/2000/svg" viewBox="0 0 180 180" role="img" aria-label="Fitzherbert University Apple Icon">
  <rect width="180" height="180" rx="36" fill="#F4F1EA" />
  <circle cx="90" cy="90" r="68" fill="#0B1F3B" stroke="#C8A24C" stroke-width="4" />
  <circle cx="90" cy="90" r="57" fill="none" stroke="#C8A24C" stroke-opacity="0.35" stroke-width="1.5" />
  <path d="M90 42 L132 58 L132 109 Q132 141 90 156 Q48 141 48 109 L48 58 Z" fill="#0E2548" stroke="#C8A24C" stroke-width="3"/>
  <path d="M90 79 L70 83 L70 108 L90 104 Z" fill="#0B1F3B" stroke="#C8A24C" stroke-width="1.6"/>
  <path d="M90 79 L110 83 L110 108 L90 104 Z" fill="#0B1F3B" stroke="#C8A24C" stroke-width="1.6"/>
  <line x1="90" y1="76" x2="90" y2="106" stroke="#C8A24C" stroke-width="2"/>
  <rect x="87" y="53" width="6" height="15" rx="2" fill="#C8A24C"/>
  <path d="M90 41 Q84 48 86 55 Q90 51 90 57 Q90 51 94 55 Q96 48 90 41 Z" fill="#C8A24C"/>
  <text x="90" y="131" text-anchor="middle" font-family="Georgia,serif" font-size="11" letter-spacing="4" fill="#C8A24C">1783</text>
</svg>