<svg xmlns="http://www.w3.org/2000/svg" viewBox="0 0 256 256" role="img" aria-label="Fitzherbert University Icon">
  <defs>
    <linearGradient id="bg" x1="0" y1="0" x2="1" y2="1">
      <stop offset="0%" stop-color="#0B1F3B" />
      <stop offset="100%" stop-color="#08162A" />
    </linearGradient>
    <linearGradient id="gold" x1="0" y1="0" x2="0" y2="1">
      <stop offset="0%" stop-color="#E4C76B" />
      <stop offset="100%" stop-color="#C8A24C" />
    </linearGradient>
  </defs>
  <rect width="256" height="256" rx="32" fill="#F4F1EA" />
  <rect x="10" y="10" width="236" height="236" rx="26" fill="url(#bg)" stroke="url(#gold)" stroke-width="4" />
  <path d="M128 42 L191 68 L191 146 Q191 193 128 214 Q65 193 65 146 L65 68 Z" fill="#0E2548" stroke="url(#gold)" stroke-width="5"/>
  <path d="M128 52 L183 74 L183 143 Q183 185 128 205 Q73 185 73 143 L73 74 Z" fill="none" stroke="url(#gold)" stroke-opacity="0.35" stroke-width="1.5"/>
  <line x1="128" y1="52" x2="128" y2="205" stroke="url(#gold)" stroke-opacity="0.35" stroke-width="1.5"/>
  <line x1="73" y1="124" x2="183" y2="124" stroke="url(#gold)" stroke-opacity="0.35" stroke-width="1.5"/>
  <path d="M128 52 L73 74 L73 124 L128 124 Z" fill="#7A0019" fill-opacity="0.55"/>
  <path d="M128 124 L183 124 L183 143 Q183 185 128 205 Z" fill="#7A0019" fill-opacity="0.55"/>
  <g transform="translate(128 108)">
    <path d="M-4 -18 L-34 -12 L-34 18 L-4 14 Z" fill="#0B1F3B" stroke="url(#gold)" stroke-width="2"/>
    <path d="M4 -18 L34 -12 L34 18 L4 14 Z" fill="#0B1F3B" stroke="url(#gold)" stroke-width="2"/>
    <line x1="0" y1="-20" x2="0" y2="18" stroke="url(#gold)" stroke-width="2.5"/>
    <line x1="-10" y1="-4" x2="-28" y2="-1" stroke="url(#gold)" stroke-opacity="0.65"/>
    <line x1="-10" y1="4" x2="-28" y2="7" stroke="url(#gold)" stroke-opacity="0.65"/>
    <line x1="10" y1="-4" x2="28" y2="-1" stroke="url(#gold)" stroke-opacity="0.65"/>
    <line x1="10" y1="4" x2="28" y2="7" stroke="url(#gold)" stroke-opacity="0.65"/>
  </g>
  <g transform="translate(128 70)">
    <rect x="-3" y="0" width="6" height="22" rx="2" fill="url(#gold)"/>
    <path d="M0 -14 Q-7 -6 -4 3 Q0 -2 0 4 Q0 -2 4 3 Q7 -6 0 -14 Z" fill="url(#gold)"/>
  </g>
  <text x="128" y="176" text-anchor="middle" font-family="Georgia,serif" font-size="16" letter-spacing="6" fill="#C8A24C">1783</text>
  <text x="128" y="232" text-anchor="middle" font-family="Georgia,serif" font-size="15" letter-spacing="3" fill="#C8A24C">FITZHERBERT</text>
</svg>